<mxfile host="app.diagrams.net" modified="2024-05-16T23:06:50.945Z" agent="Mozilla/5.0 (Windows NT 10.0; Win64; x64) AppleWebKit/537.36 (KHTML, like Gecko) Chrome/123.0.0.0 Safari/537.36 OPR/109.0.0.0" etag="0swg2d-E05CjFRIXWrsl" version="24.4.2" type="device">
  <diagram name="PÃ¡gina-1" id="vCDn7dlRie6QvV0_o4y8">
    <mxGraphModel dx="1689" dy="1319" grid="1" gridSize="10" guides="1" tooltips="1" connect="1" arrows="1" fold="1" page="0" pageScale="1" pageWidth="827" pageHeight="1169" background="#FF99CC" math="0" shadow="1">
      <root>
        <mxCell id="0" />
        <mxCell id="1" parent="0" />
        <mxCell id="_NUttWeBJcJ9HIeTh1vz-1" value="Medico" style="swimlane;childLayout=stackLayout;horizontal=1;startSize=50;horizontalStack=0;rounded=1;fontSize=14;fontStyle=0;strokeWidth=2;resizeParent=0;resizeLast=1;shadow=0;dashed=0;align=center;arcSize=4;whiteSpace=wrap;html=1;" vertex="1" parent="1">
          <mxGeometry x="-200" y="-40" width="160" height="120" as="geometry" />
        </mxCell>
        <mxCell id="_NUttWeBJcJ9HIeTh1vz-2" value="rut (PK)&lt;br&gt;nombre&lt;br&gt;direccion" style="align=left;strokeColor=none;fillColor=none;spacingLeft=4;fontSize=12;verticalAlign=top;resizable=0;rotatable=0;part=1;html=1;" vertex="1" parent="_NUttWeBJcJ9HIeTh1vz-1">
          <mxGeometry y="50" width="160" height="70" as="geometry" />
        </mxCell>
        <mxCell id="_NUttWeBJcJ9HIeTh1vz-3" value="Especialidad" style="swimlane;childLayout=stackLayout;horizontal=1;startSize=50;horizontalStack=0;rounded=1;fontSize=14;fontStyle=0;strokeWidth=2;resizeParent=0;resizeLast=1;shadow=0;dashed=0;align=center;arcSize=4;whiteSpace=wrap;html=1;" vertex="1" parent="1">
          <mxGeometry x="300" y="-40" width="160" height="120" as="geometry" />
        </mxCell>
        <mxCell id="_NUttWeBJcJ9HIeTh1vz-4" value="codigo (PK)&lt;br&gt;descripcion" style="align=left;strokeColor=none;fillColor=none;spacingLeft=4;fontSize=12;verticalAlign=top;resizable=0;rotatable=0;part=1;html=1;" vertex="1" parent="_NUttWeBJcJ9HIeTh1vz-3">
          <mxGeometry y="50" width="160" height="70" as="geometry" />
        </mxCell>
        <mxCell id="_NUttWeBJcJ9HIeTh1vz-5" value="Consulta" style="swimlane;childLayout=stackLayout;horizontal=1;startSize=50;horizontalStack=0;rounded=1;fontSize=14;fontStyle=0;strokeWidth=2;resizeParent=0;resizeLast=1;shadow=0;dashed=0;align=center;arcSize=4;whiteSpace=wrap;html=1;" vertex="1" parent="1">
          <mxGeometry x="-200" y="360" width="160" height="120" as="geometry" />
        </mxCell>
        <mxCell id="_NUttWeBJcJ9HIeTh1vz-6" value="id(PK)&lt;br&gt;fecha&lt;div&gt;hora atencion&lt;/div&gt;&lt;div&gt;numbox&lt;/div&gt;" style="align=left;strokeColor=none;fillColor=none;spacingLeft=4;fontSize=12;verticalAlign=top;resizable=0;rotatable=0;part=1;html=1;" vertex="1" parent="_NUttWeBJcJ9HIeTh1vz-5">
          <mxGeometry y="50" width="160" height="70" as="geometry" />
        </mxCell>
        <mxCell id="_NUttWeBJcJ9HIeTh1vz-7" value="Usuario" style="swimlane;childLayout=stackLayout;horizontal=1;startSize=50;horizontalStack=0;rounded=1;fontSize=14;fontStyle=0;strokeWidth=2;resizeParent=0;resizeLast=1;shadow=0;dashed=0;align=center;arcSize=4;whiteSpace=wrap;html=1;" vertex="1" parent="1">
          <mxGeometry x="320" y="360" width="160" height="120" as="geometry" />
        </mxCell>
        <mxCell id="_NUttWeBJcJ9HIeTh1vz-8" value="rut (PK)&lt;br&gt;nombre&lt;br&gt;direccion" style="align=left;strokeColor=none;fillColor=none;spacingLeft=4;fontSize=12;verticalAlign=top;resizable=0;rotatable=0;part=1;html=1;" vertex="1" parent="_NUttWeBJcJ9HIeTh1vz-7">
          <mxGeometry y="50" width="160" height="70" as="geometry" />
        </mxCell>
        <mxCell id="_NUttWeBJcJ9HIeTh1vz-9" value="Licencia" style="swimlane;childLayout=stackLayout;horizontal=1;startSize=50;horizontalStack=0;rounded=1;fontSize=14;fontStyle=0;strokeWidth=2;resizeParent=0;resizeLast=1;shadow=0;dashed=0;align=center;arcSize=4;whiteSpace=wrap;html=1;" vertex="1" parent="1">
          <mxGeometry x="60" y="180" width="160" height="170" as="geometry" />
        </mxCell>
        <mxCell id="_NUttWeBJcJ9HIeTh1vz-10" value="codigo (PK)&lt;br&gt;medico(FK)&lt;div&gt;usuario(FK)&lt;/div&gt;&lt;div&gt;fecha inicio&lt;/div&gt;&lt;div&gt;fecha termino&lt;/div&gt;&lt;div&gt;diagnostico&lt;/div&gt;" style="align=left;strokeColor=none;fillColor=none;spacingLeft=4;fontSize=12;verticalAlign=top;resizable=0;rotatable=0;part=1;html=1;" vertex="1" parent="_NUttWeBJcJ9HIeTh1vz-9">
          <mxGeometry y="50" width="160" height="120" as="geometry" />
        </mxCell>
        <mxCell id="_NUttWeBJcJ9HIeTh1vz-14" value="" style="edgeStyle=entityRelationEdgeStyle;fontSize=12;html=1;endArrow=ERoneToMany;rounded=0;" edge="1" parent="1" source="_NUttWeBJcJ9HIeTh1vz-4" target="_NUttWeBJcJ9HIeTh1vz-2">
          <mxGeometry width="100" height="100" relative="1" as="geometry">
            <mxPoint x="80" y="90" as="sourcePoint" />
            <mxPoint x="160" y="40" as="targetPoint" />
            <Array as="points">
              <mxPoint x="110" y="-320" />
            </Array>
          </mxGeometry>
        </mxCell>
        <mxCell id="_NUttWeBJcJ9HIeTh1vz-15" value="" style="edgeStyle=orthogonalEdgeStyle;fontSize=12;html=1;endArrow=ERzeroToMany;endFill=1;rounded=0;entryX=0;entryY=0.5;entryDx=0;entryDy=0;" edge="1" parent="1" target="_NUttWeBJcJ9HIeTh1vz-10">
          <mxGeometry width="100" height="100" relative="1" as="geometry">
            <mxPoint x="-40" y="70" as="sourcePoint" />
            <mxPoint x="170" y="400" as="targetPoint" />
          </mxGeometry>
        </mxCell>
        <mxCell id="_NUttWeBJcJ9HIeTh1vz-16" value="" style="fontSize=12;html=1;endArrow=ERoneToMany;rounded=0;entryX=0.5;entryY=0;entryDx=0;entryDy=0;exitX=0.5;exitY=1;exitDx=0;exitDy=0;" edge="1" parent="1" source="_NUttWeBJcJ9HIeTh1vz-2" target="_NUttWeBJcJ9HIeTh1vz-5">
          <mxGeometry width="100" height="100" relative="1" as="geometry">
            <mxPoint x="-320" y="360" as="sourcePoint" />
            <mxPoint x="-220" y="260" as="targetPoint" />
          </mxGeometry>
        </mxCell>
        <mxCell id="_NUttWeBJcJ9HIeTh1vz-18" value="" style="edgeStyle=entityRelationEdgeStyle;fontSize=12;html=1;endArrow=ERzeroToMany;endFill=1;rounded=0;entryX=0.316;entryY=0;entryDx=0;entryDy=0;entryPerimeter=0;" edge="1" parent="1" target="_NUttWeBJcJ9HIeTh1vz-7">
          <mxGeometry width="100" height="100" relative="1" as="geometry">
            <mxPoint x="220" y="230" as="sourcePoint" />
            <mxPoint x="370.55999999999995" y="335.79999999999995" as="targetPoint" />
            <Array as="points">
              <mxPoint x="350" y="210" />
              <mxPoint x="360" y="220" />
              <mxPoint x="320" y="240" />
              <mxPoint x="341" y="270" />
              <mxPoint x="350" y="240" />
              <mxPoint x="360" y="300" />
              <mxPoint x="360" y="200" />
              <mxPoint x="340" y="290" />
              <mxPoint x="340" y="290" />
              <mxPoint x="320" y="220" />
              <mxPoint x="380" y="250" />
              <mxPoint x="410" y="240" />
              <mxPoint x="370" y="210" />
              <mxPoint x="350" y="220" />
            </Array>
          </mxGeometry>
        </mxCell>
        <mxCell id="_NUttWeBJcJ9HIeTh1vz-20" value="" style="edgeStyle=entityRelationEdgeStyle;fontSize=12;html=1;endArrow=ERzeroToMany;endFill=1;rounded=0;entryX=1;entryY=0.5;entryDx=0;entryDy=0;exitX=0;exitY=0.5;exitDx=0;exitDy=0;" edge="1" parent="1" source="_NUttWeBJcJ9HIeTh1vz-8" target="_NUttWeBJcJ9HIeTh1vz-6">
          <mxGeometry width="100" height="100" relative="1" as="geometry">
            <mxPoint x="-240" y="660" as="sourcePoint" />
            <mxPoint x="-140" y="560" as="targetPoint" />
          </mxGeometry>
        </mxCell>
      </root>
    </mxGraphModel>
  </diagram>
</mxfile>
